<svg width="200" height="60" viewBox="0 0 200 60" fill="none" xmlns="http://www.w3.org/2000/svg">
<path d="M41.4589 34.7653H35.2764C34.6852 34.7221 34.2156 34.2813 34.1721 33.7195V2.18152C34.1721 1.55059 34.7025 1.04929 35.3634 1.04929H41.1285C41.7285 1.07521 42.2067 1.5333 42.2502 2.10373V6.2264H42.3633C43.8676 2.24201 46.6936 0.383789 50.5022 0.383789C54.3717 0.383789 56.789 2.24201 58.5281 6.2264C60.0238 2.24201 63.4237 0.383789 67.0671 0.383789C69.6583 0.383789 72.4931 1.44687 74.2235 3.83231C76.1799 6.48569 75.7799 10.3404 75.7799 13.7198L75.7713 33.6244C75.7713 34.2554 75.2408 34.7653 74.58 34.7653H68.4062C67.7888 34.7221 67.2932 34.2295 67.2932 33.6244V16.909C67.2932 15.578 67.4149 12.2592 67.1193 10.9973C66.6584 8.87978 65.2758 8.28341 63.4846 8.28341C61.9889 8.28341 60.4237 9.27735 59.789 10.8676C59.1542 12.4579 59.2151 15.12 59.2151 16.909V33.6244C59.2151 34.2554 58.6847 34.7653 58.0238 34.7653H51.85C51.2239 34.7221 50.737 34.2295 50.737 33.6244L50.7283 16.909C50.7283 13.3914 51.3109 8.21427 46.9197 8.21427C42.4763 8.21427 42.6502 13.2617 42.6502 16.909V33.6244C42.6502 34.2554 42.1198 34.7653 41.4589 34.7653Z" fill="#DDE0E4"/>
<path d="M18.3376 19.7005V18.3695C13.8681 18.3695 9.1465 19.3202 9.1465 24.5578C9.1465 27.2112 10.5291 29.0089 12.9029 29.0089C14.642 29.0089 16.1985 27.9458 17.1811 26.2172C18.3985 24.0911 18.3376 22.0946 18.3376 19.7005ZM24.5723 34.6786C24.1636 35.0416 23.5723 35.0676 23.1114 34.8256C21.0593 33.1316 20.6941 32.3451 19.5637 30.7288C16.1724 34.1687 13.7725 35.1972 9.37258 35.1972C4.17269 35.1972 0.120605 32.008 0.120605 25.6209C0.120605 20.6339 2.84229 17.2372 6.71177 15.5778C10.0682 14.1085 14.7551 13.8492 18.3376 13.443V12.6479C18.3376 11.1872 18.4507 9.45862 17.5898 8.19676C16.8333 7.06453 15.3899 6.59781 14.1203 6.59781C11.7638 6.59781 9.65953 7.79918 9.1465 10.2883C9.04216 10.8415 8.63347 11.386 8.07696 11.4119L2.07709 10.7723C1.57275 10.66 1.01624 10.2538 1.15536 9.48455C2.53795 2.25908 9.10302 0.0810547 14.9812 0.0810547C17.9898 0.0810547 21.9201 0.876203 24.294 3.14065C27.3026 5.93231 27.0157 9.6574 27.0157 13.7109V23.2873C27.0157 26.1654 28.2157 27.4272 29.3461 28.983C29.7461 29.5361 29.833 30.2016 29.3287 30.6165C28.0678 31.6623 25.8244 33.6069 24.5897 34.6959L24.5723 34.6786Z" fill="#DDE0E4"/>
<path d="M98.4823 20.6084V19.2774C94.0129 19.2774 89.2912 20.2281 89.2912 25.4658C89.2912 28.1191 90.6738 29.9169 93.0477 29.9169C94.7868 29.9169 96.3432 28.8538 97.3258 27.1252C98.5432 24.999 98.4823 23.0025 98.4823 20.6084ZM104.717 35.5866C104.308 35.9496 103.717 35.9755 103.256 35.7335C101.204 34.0395 100.839 33.253 99.7084 31.6368C96.3172 35.0767 93.9172 36.1052 89.5173 36.1052C84.3174 36.1052 80.2653 32.9159 80.2653 26.5288C80.2653 21.5419 82.987 18.1452 86.8565 16.4858C90.2129 15.0165 94.8998 14.7572 98.4823 14.351V13.5558C98.4823 12.0952 98.5954 10.3666 97.7345 9.10472C96.978 7.97249 95.5346 7.50577 94.265 7.50577C91.9086 7.50577 89.8042 8.70714 89.2912 11.1963C89.1869 11.7494 88.7782 12.294 88.2217 12.3199L82.2218 11.6803C81.7175 11.5679 81.161 11.1617 81.3001 10.3925C82.6827 3.16703 89.2477 0.989014 95.1259 0.989014C98.1345 0.989014 102.065 1.78416 104.439 4.0486C107.447 6.84027 107.16 10.5654 107.16 14.6189V24.1952C107.16 27.0733 108.36 28.3352 109.491 29.8909C109.891 30.4441 109.978 31.1096 109.473 31.5244C108.213 32.5702 105.969 34.5149 104.734 35.6039L104.717 35.5866Z" fill="#DDE0E4"/>
<path d="M115.588 6.61511V2.10351C115.588 1.42072 116.11 0.962646 116.736 0.962646H137.057C137.709 0.962646 138.231 1.42936 138.231 2.10351V5.96689C138.222 6.61511 137.674 7.46212 136.701 8.80177L126.17 23.7454C130.083 23.6503 134.214 24.2294 137.761 26.2172C138.561 26.6667 138.779 27.3235 138.84 27.9718V32.7859C138.84 33.4427 138.109 34.2119 137.344 33.8144C131.092 30.556 122.788 30.2016 115.875 33.8489C115.171 34.2292 114.431 33.4687 114.431 32.8118V28.2397C114.431 27.505 114.44 26.2518 115.179 25.1369L127.379 7.74733H116.762C116.11 7.74733 115.588 7.28926 115.588 6.61511Z" fill="#DDE0E4"/>
<path d="M155.726 0.383789C164.9 0.383789 169.865 8.21427 169.865 18.1709C169.865 27.7905 164.378 35.4222 155.726 35.4222C146.718 35.4222 141.813 27.5917 141.813 17.8338C141.813 8.01548 146.779 0.383789 155.726 0.383789ZM155.778 6.82276C151.222 6.82276 150.935 12.9938 150.935 16.8399C150.935 20.6946 150.874 28.9227 155.726 28.9227C160.517 28.9227 160.744 22.2849 160.744 18.24C160.744 15.578 160.63 12.3974 159.822 9.87371C159.126 7.67842 157.744 6.82276 155.778 6.82276Z" fill="#DDE0E4"/>
<path d="M181.76 34.7651H175.604C174.987 34.7219 174.491 34.2292 174.491 33.6242L174.482 2.07756C174.534 1.49848 175.047 1.04905 175.674 1.04905H181.404C181.943 1.07496 182.386 1.43798 182.508 1.93063V6.75337H182.621C184.352 2.44056 186.778 0.383545 191.047 0.383545C193.821 0.383545 196.525 1.37748 198.264 4.1C199.882 6.62373 199.882 10.8674 199.882 13.9183V33.7711C199.812 34.3243 199.299 34.7651 198.69 34.7651H192.491C191.925 34.7219 191.456 34.307 191.395 33.7711V16.6409C191.395 13.1923 191.795 8.14488 187.525 8.14488C186.021 8.14488 184.639 9.14746 183.952 10.6686C183.082 12.596 182.969 14.5147 182.969 16.6409V33.6242C182.96 34.2551 182.421 34.7651 181.76 34.7651Z" fill="#DDE0E4"/>
<path d="M124.049 46.8738C112.44 55.3784 95.6144 59.9159 81.1277 59.9159C60.8151 59.9159 42.5285 52.4485 28.694 40.0286C27.6071 39.0519 28.581 37.7209 29.8853 38.4815C44.8154 47.1158 63.2759 52.3102 82.3451 52.3102C95.2057 52.3102 109.353 49.6654 122.362 44.1772C124.327 43.3475 125.97 45.4563 124.049 46.8738Z" fill="#DDE0E4"/>
<path d="M128.875 41.3856C127.396 39.5015 119.066 40.4954 115.327 40.9362C114.188 41.0745 114.014 40.0892 115.04 39.3805C121.675 34.7392 132.561 36.0789 133.831 37.6346C135.1 39.199 133.501 50.0458 127.266 55.2229C126.309 56.0181 125.396 55.5946 125.822 54.5401C127.222 51.0657 130.361 43.2784 128.875 41.3856Z" fill="#DDE0E4"/>
</svg>
