<svg width="220" height="60" viewBox="0 0 220 60" fill="none" xmlns="http://www.w3.org/2000/svg">
<g clip-path="url(#clip0_802_11)">
<path d="M46.844 0H6.21555C2.78942 0 0 2.78366 0 6.20272V46.7474C0 50.1664 2.78942 52.9501 6.21555 52.9501H40.5981L38.9912 47.413L42.8721 50.9834L46.5408 54.3419L53.0899 60V6.20272C53.0595 2.78366 50.2701 0 46.844 0ZM35.1406 39.1831C35.1406 39.1831 34.0491 37.882 33.1395 36.7625C37.1114 35.643 38.6273 33.1921 38.6273 33.1921C37.3842 34.0091 36.2018 34.584 35.1406 34.9773C33.6246 35.6127 32.1692 36.0061 30.7442 36.2784C27.8335 36.823 25.1654 36.6717 22.8914 36.2481C21.1632 35.9153 19.6775 35.4614 18.4344 34.9471C17.737 34.6747 16.9791 34.3419 16.2211 33.9183C16.1301 33.8578 16.0391 33.8275 15.9482 33.767C15.8875 33.7368 15.8572 33.7065 15.8269 33.7065C15.2811 33.4039 14.978 33.1921 14.978 33.1921C14.978 33.1921 16.4333 35.5825 20.2839 36.7322C19.3743 37.882 18.2525 39.2133 18.2525 39.2133C11.5518 39.0015 9.00496 34.6445 9.00496 34.6445C9.00496 24.9924 13.371 17.1558 13.371 17.1558C17.737 13.9183 21.8605 14.0091 21.8605 14.0091L22.1637 14.3722C16.7062 15.9153 14.22 18.3056 14.22 18.3056C14.22 18.3056 14.887 17.9425 16.0088 17.4584C19.253 16.0363 21.8302 15.6732 22.8914 15.5522C23.0733 15.5219 23.2249 15.4917 23.4068 15.4917C25.2563 15.2496 27.3484 15.1891 29.5314 15.4312C32.4118 15.764 35.5044 16.6112 38.6577 18.3056C38.6577 18.3056 36.2624 16.0363 31.108 14.4932L31.5325 14.0091C31.5325 14.0091 35.6863 13.9183 40.022 17.1558C40.022 17.1558 44.3881 24.9924 44.3881 34.6445C44.3881 34.6142 41.8412 38.9713 35.1406 39.1831V39.1831ZM80.9234 12.9501H70.8572V24.236L77.5579 30.2572V19.3041H81.1356C83.4096 19.3041 84.5314 20.3933 84.5314 22.1483V30.5295C84.5314 32.2844 83.4702 33.4645 81.1356 33.4645H70.8269V39.8487H80.8931C86.29 39.879 91.3534 37.1861 91.3534 31.0136V21.997C91.3837 15.7035 86.3203 12.9501 80.9234 12.9501V12.9501ZM133.68 31.0136V21.7549C133.68 18.4266 139.683 17.6702 141.502 20.9985L147.051 18.7595C144.868 13.9788 140.896 12.587 137.591 12.587C132.194 12.587 126.858 15.7035 126.858 21.7549V31.0136C126.858 37.1256 132.194 40.1815 137.47 40.1815C140.865 40.1815 144.928 38.5174 147.172 34.1604L141.229 31.4372C139.774 35.1589 133.68 34.2511 133.68 31.0136V31.0136ZM115.336 23.0257C113.244 22.5719 111.85 21.8154 111.759 20.5144C111.88 17.3979 116.701 17.2769 119.52 20.2723L123.977 16.8533C121.188 13.4644 118.035 12.5567 114.791 12.5567C109.848 12.5567 105.058 15.3404 105.058 20.6051C105.058 25.7186 108.999 28.472 113.335 29.1377C115.549 29.4402 118.004 30.3177 117.944 31.8306C117.762 34.705 111.819 34.5537 109.121 31.2859L104.815 35.3101C107.332 38.5477 110.758 40.1815 113.972 40.1815C118.914 40.1815 124.402 37.3374 124.614 32.1331C124.917 25.5673 120.127 23.9032 115.336 23.0257V23.0257ZM95.022 39.8185H101.814V12.9501H95.022V39.8185ZM209.54 12.9501H199.474V24.236L206.174 30.2572V19.3041H209.752C212.026 19.3041 213.148 20.3933 213.148 22.1483V30.5295C213.148 32.2844 212.087 33.4645 209.752 33.4645H199.443V39.8487H209.54C214.937 39.879 220 37.1861 220 31.0136V21.997C220 15.7035 214.937 12.9501 209.54 12.9501V12.9501ZM160.149 12.587C154.57 12.587 149.022 15.6127 149.022 21.8154V30.9834C149.022 37.1256 154.6 40.2118 160.209 40.2118C165.788 40.2118 171.337 37.1256 171.337 30.9834V21.8154C171.337 15.643 165.728 12.587 160.149 12.587ZM164.515 30.9834C164.515 32.9198 162.332 33.9183 160.179 33.9183C157.996 33.9183 155.813 32.9803 155.813 30.9834V21.8154C155.813 19.8487 157.935 18.7897 160.058 18.7897C162.271 18.7897 164.515 19.7277 164.515 21.8154V30.9834V30.9834ZM195.714 21.8154C195.562 15.5219 191.257 12.9803 185.708 12.9803H174.945V39.8487H181.827V31.3162H183.04L189.286 39.8487H197.776L190.438 30.6203C193.682 29.5915 195.714 26.7776 195.714 21.8154ZM185.83 25.4463H181.827V19.3041H185.83C190.105 19.3041 190.105 25.4463 185.83 25.4463Z" fill="#DDE0E4"/>
<path d="M32.1086 25.174C30.3804 25.174 29.016 26.6566 29.016 28.5023C29.016 30.348 30.4107 31.8306 32.1086 31.8306C33.8368 31.8306 35.2012 30.348 35.2012 28.5023C35.2012 26.6566 33.8065 25.174 32.1086 25.174ZM21.0419 25.174C19.3137 25.174 17.9493 26.6566 17.9493 28.5023C17.9493 30.348 19.344 31.8306 21.0419 31.8306C22.7701 31.8306 24.1345 30.348 24.1345 28.5023C24.1648 26.6566 22.7701 25.174 21.0419 25.174Z" fill="#DDE0E4"/>
</g>
<defs>
<clipPath id="clip0_802_11">
<rect width="220" height="60" fill="white"/>
</clipPath>
</defs>
</svg>
