<svg width="18" height="19" viewBox="0 0 18 19" fill="none" xmlns="http://www.w3.org/2000/svg">
<path fill-rule="evenodd" clip-rule="evenodd" d="M17.7499 16.1864C17.7499 17.2556 16.8749 18.1306 15.8057 18.1306H2.19419C1.12494 18.1306 0.249939 17.2556 0.249939 16.1864V2.57487C0.249939 1.50562 1.12494 0.630615 2.19419 0.630615H15.8057C16.8749 0.630615 17.7499 1.50562 17.7499 2.57487V16.1864ZM12.7123 13.0929C13.6968 12.1084 14.2499 10.773 14.2499 9.38062C14.2499 9.08137 14.2184 8.78912 14.1642 8.50562H15.9999V15.5004C15.9999 15.7335 15.9074 15.9572 15.7427 16.1222C15.578 16.2872 15.3546 16.3802 15.1214 16.3806H2.88019C2.39369 16.3806 1.99994 15.9869 1.99994 15.5004V8.50562H3.83569C3.78144 8.78912 3.74994 9.08137 3.74994 9.38062C3.74994 10.773 4.30306 12.1084 5.28763 13.0929C6.2722 14.0775 7.60755 14.6306 8.99994 14.6306C10.3923 14.6306 11.7277 14.0775 12.7123 13.0929ZM10.3396 12.6138C9.9149 12.7898 9.45968 12.8805 8.99994 12.8806C8.07145 12.8808 7.1809 12.5122 6.52419 11.8559C5.86749 11.1995 5.49842 10.3091 5.49819 9.38062C5.49796 8.45213 5.86658 7.56157 6.52295 6.90487C7.17933 6.24816 8.0697 5.8791 8.99819 5.87887C9.45793 5.87875 9.91319 5.96919 10.338 6.14502C10.7628 6.32085 11.1488 6.57863 11.4739 6.90363C11.7991 7.22864 12.0571 7.6145 12.2331 8.03921C12.4092 8.46391 12.4998 8.91912 12.4999 9.37887C12.5001 9.83861 12.4096 10.2939 12.2338 10.7187C12.058 11.1435 11.8002 11.5294 11.4752 11.8546C11.1502 12.1798 10.7643 12.4378 10.3396 12.6138ZM15.2982 5.70562H13.1999C12.9112 5.70562 12.6749 5.46937 12.6732 5.18062V3.08237C12.6732 2.94266 12.7287 2.80868 12.8275 2.7099C12.9263 2.61111 13.0602 2.55562 13.1999 2.55562H15.2982C15.4379 2.55562 15.5719 2.61111 15.6707 2.7099C15.7694 2.80868 15.8249 2.94266 15.8249 3.08237V5.18062C15.8245 5.32001 15.7688 5.45355 15.67 5.55195C15.5713 5.65036 15.4376 5.70562 15.2982 5.70562Z" fill="#F53838"/>
</svg>
