<svg width="222" height="60" viewBox="0 0 222 60" fill="none" xmlns="http://www.w3.org/2000/svg">
<path d="M30.5256 56.1326C27.1861 56.719 23.7878 56.8949 20.2725 57.3632L9.55012 25.9572V58.7111C6.21058 59.0625 3.16393 59.5313 0 60V0H8.90602L21.0926 34.0435V0H30.5256V56.1326ZM48.9818 21.9727C52.6147 21.9727 58.1807 21.7968 61.5202 21.7968V31.1716C57.3601 31.1716 52.4974 31.1716 48.9818 31.3475V45.293C54.4895 44.9416 59.997 44.4724 65.5628 44.2966V53.3195L39.6071 55.3707V0H65.5628V9.37501H48.9818V21.9727V21.9727ZM100.424 9.37523H90.6983V52.5002C87.5343 52.5002 84.3704 52.5002 81.3242 52.617V9.37523H71.5983V0H100.425L100.424 9.37523V9.37523ZM115.658 21.3283H128.489V30.7031H115.658V51.9729H106.458V0H132.649V9.37501H115.658V21.3283V21.3283ZM147.883 43.7695C153.214 43.8864 158.604 44.2972 163.819 44.5897V53.8476C155.441 53.3199 147.062 52.7933 138.508 52.617V0H147.883V43.7695ZM171.729 54.4922C174.717 54.6682 177.881 54.8441 180.928 55.1951V0H171.729V54.4922V54.4922ZM222 0L210.106 28.5352L222 60C218.484 59.5313 214.969 58.8867 211.453 58.3007L204.716 40.9573L197.861 56.8949C194.462 56.3084 191.181 56.1326 187.784 55.6638L199.853 28.1834L188.955 0H199.032L205.184 15.7618L211.747 0H222V0Z" fill="#DDE0E4"/>
</svg>