<svg width="173" height="60" viewBox="0 0 173 60" fill="none" xmlns="http://www.w3.org/2000/svg">
<path d="M102.39 36.8375C104.238 36.8375 105.305 35.4414 105.234 34.081C105.198 33.365 105.127 32.8996 105.056 32.5416C103.919 27.6013 99.9367 23.9497 95.2083 23.9497C89.5911 23.9497 85.0404 29.069 85.0404 35.3698C85.0404 41.6705 89.5911 46.7898 95.2083 46.7898C98.7279 46.7898 101.252 45.501 103.065 43.4604C103.954 42.4581 103.776 40.9187 102.71 40.1669C101.821 39.5583 100.719 39.7731 99.9011 40.4533C99.119 41.1335 97.6258 42.4939 95.2083 42.4939C92.3641 42.4939 89.9466 40.0237 89.4133 36.7659H102.39V36.8375ZM95.1727 28.2814C97.7325 28.2814 99.9367 30.2862 100.754 33.0428H89.5911C90.4088 30.2504 92.613 28.2814 95.1727 28.2814Z" fill="#DDE0E4"/>
<path d="M84.7231 26.215C84.7231 25.1411 83.9409 24.2819 82.9455 24.1029C79.8524 23.6375 76.9372 24.7831 75.2662 26.8952V26.6088C75.2662 25.2843 74.1997 24.4609 73.1331 24.4609C71.9599 24.4609 71 25.4274 71 26.6088V44.1506C71 45.2962 71.8532 46.2986 72.9909 46.3702C74.2352 46.4418 75.2662 45.4752 75.2662 44.2222V35.1649C75.2662 31.1554 78.2526 27.8618 82.3766 28.3272C82.5188 28.3272 82.661 28.3272 82.8033 28.3272C83.8698 28.2556 84.7231 27.3248 84.7231 26.215Z" fill="#DDE0E4"/>
<path d="M126.636 16.6109C126.636 15.4295 125.676 14.4629 124.503 14.4629C123.33 14.4629 122.37 15.4295 122.37 16.6109V26.1693C120.912 24.7016 119.099 23.9856 116.931 23.9856C111.313 23.9856 106.763 29.1049 106.763 35.4056C106.763 41.7063 111.313 46.8257 116.931 46.8257C119.099 46.8257 120.948 46.0739 122.406 44.6061C122.583 45.6085 123.472 46.3603 124.503 46.3603C125.676 46.3603 126.636 45.3937 126.636 44.2123V16.6109ZM116.966 42.5655C113.695 42.5655 111.064 39.3794 111.064 35.4056C111.064 31.4677 113.695 28.2457 116.966 28.2457C120.237 28.2457 122.868 31.4319 122.868 35.4056C122.868 39.3794 120.201 42.5655 116.966 42.5655Z" fill="#DDE0E4"/>
<path d="M148.892 16.6109C148.892 15.4295 147.932 14.4629 146.759 14.4629C145.585 14.4629 144.626 15.4295 144.626 16.6109V26.1693C143.168 24.7016 141.355 23.9856 139.186 23.9856C133.569 23.9856 129.018 29.1049 129.018 35.4056C129.018 41.7063 133.569 46.8257 139.186 46.8257C141.355 46.8257 143.203 46.0739 144.661 44.6061C144.839 45.6085 145.728 46.3603 146.759 46.3603C147.932 46.3603 148.892 45.3937 148.892 44.2123V16.6109ZM139.186 42.5655C135.915 42.5655 133.284 39.3794 133.284 35.4056C133.284 31.4677 135.915 28.2457 139.186 28.2457C142.457 28.2457 145.088 31.4319 145.088 35.4056C145.088 39.3794 142.457 42.5655 139.186 42.5655Z" fill="#DDE0E4"/>
<path d="M158.349 28.4964C158.349 27.315 157.389 26.3484 156.215 26.3484C155.042 26.3484 154.082 27.315 154.082 28.4964C154.082 28.568 154.082 43.5322 154.082 44.2123C154.082 45.3937 155.042 46.3603 156.215 46.3603C157.389 46.3603 158.349 45.3937 158.349 44.2123C158.349 43.568 158.349 28.6038 158.349 28.4964Z" fill="#DDE0E4"/>
<path d="M156.215 24.4511C158.297 24.4511 159.984 22.7521 159.984 20.6563C159.984 18.5605 158.297 16.8616 156.215 16.8616C154.134 16.8616 152.447 18.5605 152.447 20.6563C152.447 22.7521 154.134 24.4511 156.215 24.4511Z" fill="#DDE0E4"/>
<path d="M169.156 44.2481V28.2815H171.041C172.036 28.2815 172.925 27.5297 172.996 26.4915C173.067 25.3817 172.178 24.4509 171.112 24.4509H169.156V21.4438C169.156 20.2982 168.303 19.2958 167.165 19.2242C165.921 19.1526 164.89 20.1192 164.89 21.3722V24.4867H163.113C162.117 24.4867 161.228 25.2385 161.157 26.2767C161.086 27.3865 161.975 28.3173 163.041 28.3173H164.855V44.2839C164.855 45.4652 165.815 46.4318 166.988 46.4318C168.232 46.3602 169.156 45.4294 169.156 44.2481Z" fill="#DDE0E4"/>
<path fill-rule="evenodd" clip-rule="evenodd" d="M59.5851 30C59.5851 46.5685 46.2466 60 29.7926 60C13.3386 60 0 46.5685 0 30C0 13.4315 13.3386 0 29.7926 0C46.2466 0 59.5851 13.4315 59.5851 30ZM45.3288 25.6325C47.7108 25.6325 49.6661 27.5657 49.6661 30.0001C49.6661 31.79 48.5996 33.3294 47.1064 34.0096C47.1775 34.4392 47.2131 34.9046 47.2131 35.3342C47.2131 42.1003 39.4272 47.5418 29.8281 47.5418C20.2291 47.5418 12.4432 42.0645 12.4432 35.3342C12.4432 34.8688 12.4788 34.4392 12.5499 34.0096C11.0567 33.3294 9.99011 31.8258 9.99011 30.0359C9.99011 27.6373 11.9099 25.6683 14.3275 25.6683C15.5007 25.6683 16.5672 26.1337 17.3494 26.8855C20.3713 24.7017 24.5309 23.3055 29.1526 23.1623L31.3569 12.7089C31.3924 12.4941 31.4991 12.3151 31.6768 12.2077C31.819 12.1003 32.0323 12.0645 32.2457 12.1003L39.4627 13.6397C39.9604 12.6015 41.027 11.8855 42.2358 11.8855C43.9423 11.8855 45.3288 13.2817 45.3288 15.0001C45.3288 16.7184 43.9423 18.1146 42.2358 18.1146C40.5648 18.1146 39.2139 16.79 39.1427 15.1433L32.6723 13.7471L30.6814 23.1265C35.232 23.3055 39.3205 24.7017 42.3069 26.8497C43.089 26.0979 44.1556 25.6325 45.3288 25.6325Z" fill="#DDE0E4"/>
<path d="M19.8736 33.1146C19.8736 31.3962 21.2601 30.0001 22.9666 30.0001C24.6731 30.0001 26.0596 31.3962 26.0596 33.1146C26.0596 34.833 24.6731 36.2292 22.9666 36.2292C21.2601 36.265 19.8736 34.833 19.8736 33.1146Z" fill="#DDE0E4"/>
<path d="M36.6186 36.265C34.9121 36.265 33.5255 34.8688 33.5255 33.1504C33.5255 31.432 34.9121 30.0359 36.6186 30.0359C38.3251 30.0359 39.7116 31.432 39.7116 33.1504C39.7116 34.833 38.3251 36.265 36.6186 36.265Z" fill="#DDE0E4"/>
<path d="M37.1874 41.3843C35.0543 43.5323 31.0013 43.6755 29.8281 43.6755C28.6194 43.6755 24.5664 43.4965 22.4689 41.3843C22.1489 41.0621 22.1489 40.5609 22.4689 40.2387C22.7888 39.9165 23.2866 39.9165 23.6065 40.2387C24.9575 41.5991 27.8017 42.0645 29.8281 42.0645C31.8546 42.0645 34.7343 41.5991 36.0497 40.2387C36.3697 39.9165 36.8674 39.9165 37.1874 40.2387C37.4718 40.5609 37.4718 41.0621 37.1874 41.3843Z" fill="#DDE0E4"/>
</svg>
