<svg width="200" height="60" viewBox="0 0 200 60" fill="none" xmlns="http://www.w3.org/2000/svg">
<path d="M30.0523 0.098877C13.5052 0.098877 0.0905762 13.4892 0.0905762 30.0067C0.0905762 46.5249 13.5052 59.9142 30.0523 59.9142C46.6011 59.9142 60.0144 46.5249 60.0144 30.0067C60.0144 13.4903 46.6011 0.100306 30.0519 0.100306L30.0523 0.098877V0.098877ZM43.7925 43.2346C43.2559 44.1132 42.1038 44.3917 41.2237 43.8525C34.189 39.5632 25.3332 38.5917 14.9038 40.9703C13.8988 41.1989 12.897 40.5703 12.668 39.5667C12.438 38.5632 13.0652 37.5632 14.0727 37.3346C25.4859 34.7317 35.2759 35.8524 43.1736 40.6703C44.0537 41.2096 44.3328 42.356 43.7925 43.2346V43.2346ZM47.4598 35.091C46.7836 36.1882 45.3453 36.5346 44.2469 35.8596C36.1933 30.9182 23.9167 29.4871 14.3908 32.3735C13.1553 32.746 11.8505 32.051 11.4756 30.8199C11.1035 29.5867 11.8001 28.2867 13.0333 27.9117C23.9145 24.616 37.4419 26.2124 46.6906 31.8857C47.789 32.5607 48.136 33.9964 47.4598 35.0914V35.091ZM47.7747 26.611C38.1181 20.8857 22.1861 20.3592 12.9664 23.1525C11.4859 23.6007 9.92027 22.7664 9.47161 21.2885C9.02296 19.8099 9.85802 18.2482 11.3396 17.7989C21.9231 14.5917 39.5171 15.2114 50.6348 21.7996C51.9693 22.5885 52.4058 24.3053 51.6151 25.6328C50.828 26.9621 49.1035 27.4003 47.7761 26.611H47.7747ZM81.6065 27.7082C76.433 26.4767 75.5135 25.6124 75.5135 23.7964C75.5135 22.0807 77.1306 20.926 79.5385 20.926C81.8713 20.926 84.1825 21.8028 86.6083 23.6078C86.6798 23.6624 86.7729 23.6842 86.8623 23.6699C86.9553 23.6564 87.034 23.6067 87.0877 23.5321L89.6137 19.9778C89.7174 19.8314 89.6888 19.6296 89.5493 19.5178C86.662 17.206 83.4133 16.0821 79.6137 16.0821C74.0287 16.0821 70.1253 19.4282 70.1253 24.2157C70.1253 29.3496 73.492 31.1674 79.3095 32.5707C84.2577 33.7089 85.0949 34.6625 85.0949 36.3667C85.0949 38.256 83.4061 39.431 80.687 39.431C77.6673 39.431 75.2022 38.4132 72.4473 36.0346C72.3793 35.9739 72.2863 35.9489 72.2004 35.9524C72.1074 35.9596 72.0251 36.0024 71.9679 36.0703L69.1342 39.4346C69.0162 39.5774 69.0305 39.7846 69.1664 39.906C72.3722 42.7632 76.3149 44.2703 80.5725 44.2703C86.5904 44.2703 90.4795 40.9882 90.4795 35.906C90.4902 31.6178 87.9178 29.2428 81.6172 27.7128L81.6065 27.7082V27.7082ZM104.097 22.6153C101.488 22.6153 99.3489 23.641 97.5815 25.7428V23.3771C97.5815 23.1903 97.4312 23.0382 97.2451 23.0382H92.6119C92.4258 23.0382 92.2756 23.1903 92.2756 23.3771V49.6632C92.2756 49.8489 92.4258 50.0025 92.6119 50.0025H97.2451C97.4312 50.0025 97.5815 49.8489 97.5815 49.6632V41.3667C99.3489 43.3417 101.488 44.3096 104.097 44.3096C108.945 44.3096 113.853 40.5846 113.853 33.4635C113.861 26.341 108.952 22.6149 104.1 22.6149L104.097 22.6153ZM108.465 33.4635C108.465 37.0882 106.229 39.6203 103.023 39.6203C99.857 39.6203 97.467 36.9739 97.467 33.4635C97.467 29.9528 99.857 27.3071 103.023 27.3071C106.175 27.3067 108.465 29.8953 108.465 33.4632V33.4635ZM126.429 22.6153C120.186 22.6153 115.295 27.4139 115.295 33.541C115.295 39.6024 120.154 44.3489 126.354 44.3489C132.619 44.3489 137.524 39.5667 137.524 33.4635C137.524 27.381 132.651 22.616 126.429 22.616V22.6153V22.6153ZM126.429 39.656C123.109 39.656 120.605 36.9917 120.605 33.4617C120.605 29.9157 123.023 27.3424 126.354 27.3424C129.696 27.3424 132.215 30.0057 132.215 33.5392C132.215 37.0846 129.782 39.656 126.429 39.656V39.656ZM150.855 23.0382H145.757V17.836C145.757 17.6496 145.607 17.4974 145.42 17.4974H140.787C140.601 17.4974 140.447 17.6496 140.447 17.836V23.0382H138.222C138.036 23.0382 137.886 23.1903 137.886 23.3771V27.351C137.886 27.5374 138.036 27.6899 138.222 27.6899H140.447V37.9739C140.447 42.1275 142.519 44.2346 146.608 44.2346C148.268 44.2346 149.646 43.8917 150.945 43.156C151.052 43.0989 151.116 42.9846 151.116 42.8632V39.0774C151.116 38.9632 151.056 38.8524 150.955 38.7917C150.855 38.7274 150.73 38.7239 150.626 38.7775C149.735 39.2239 148.873 39.431 147.907 39.431C146.422 39.431 145.757 38.756 145.757 37.2489V27.6917H150.855C151.041 27.6917 151.191 27.5396 151.191 27.3528V23.3792C151.199 23.1924 151.048 23.0403 150.859 23.0403L150.855 23.0382V23.0382ZM168.615 23.0585V22.4196C168.615 20.5399 169.338 19.7017 170.955 19.7017C171.921 19.7017 172.698 19.8932 173.567 20.1824C173.674 20.216 173.785 20.1992 173.871 20.1353C173.961 20.0714 174.011 19.9689 174.011 19.8603V15.9639C174.011 15.8149 173.918 15.6832 173.771 15.6392C172.855 15.3667 171.682 15.0871 169.921 15.0871C165.646 15.0871 163.381 17.4921 163.381 22.0396V23.0182H161.156C160.97 23.0182 160.816 23.1703 160.816 23.3567V27.351C160.816 27.5374 160.97 27.6899 161.156 27.6899H163.381V43.5489C163.381 43.7382 163.535 43.8882 163.721 43.8882H168.351C168.54 43.8882 168.691 43.7382 168.691 43.5489V27.691H173.016L179.642 43.5489C178.891 45.2132 178.15 45.5453 177.141 45.5453C176.326 45.5453 175.463 45.3024 174.587 44.8203C174.505 44.7774 174.404 44.7703 174.318 44.7953C174.229 44.8274 174.154 44.8917 174.118 44.9774L172.547 48.4167C172.472 48.581 172.537 48.7703 172.694 48.856C174.333 49.7417 175.81 50.1203 177.639 50.1203C181.059 50.1203 182.952 48.5275 184.615 44.2489L192.651 23.5214C192.694 23.4171 192.68 23.2992 192.615 23.2067C192.555 23.1149 192.451 23.0596 192.34 23.0596H187.517C187.37 23.0596 187.242 23.1514 187.195 23.2867L182.254 37.3703L176.844 23.2774C176.794 23.1464 176.669 23.0596 176.53 23.0596H168.615V23.0585V23.0585ZM158.318 23.0382H153.685C153.499 23.0382 153.345 23.1903 153.345 23.3771V43.5489C153.345 43.7382 153.499 43.8882 153.685 43.8882H158.318C158.505 43.8882 158.658 43.7382 158.658 43.5489V23.3785C158.658 23.1917 158.508 23.0396 158.318 23.0396V23.0382ZM156.029 13.8528C154.193 13.8528 152.705 15.3357 152.705 17.1674C152.705 19.0003 154.193 20.4849 156.029 20.4849C157.864 20.4849 159.349 19.0003 159.349 17.1674C159.349 15.336 157.861 13.8528 156.029 13.8528ZM196.608 29.5242C194.776 29.5242 193.349 28.0546 193.349 26.2699C193.349 24.4853 194.794 22.9989 196.626 22.9989C198.458 22.9989 199.886 24.4682 199.886 26.2514C199.886 28.036 198.44 29.5242 196.608 29.5242ZM196.626 23.3224C194.955 23.3224 193.692 24.6474 193.692 26.2699C193.692 27.8917 194.948 29.1989 196.608 29.1989C198.279 29.1989 199.542 27.8749 199.542 26.2514C199.542 24.6296 198.286 23.3224 196.626 23.3224V23.3224ZM197.349 26.586L198.272 27.8746H197.492L196.662 26.6924H195.95V27.8746H195.299V24.4589H196.823C197.621 24.4589 198.143 24.8649 198.143 25.5485C198.147 26.1085 197.821 26.4507 197.352 26.586H197.349ZM196.798 25.0449H195.95V26.1253H196.798C197.22 26.1253 197.474 25.9185 197.474 25.5846C197.474 25.2332 197.22 25.0449 196.798 25.0449V25.0449Z" fill="#DDE0E4"/>
</svg>
